<mxfile host="app.diagrams.net" modified="2024-01-10T21:27:44.102Z" agent="Mozilla/5.0 (Windows NT 10.0; Win64; x64) AppleWebKit/537.36 (KHTML, like Gecko) Chrome/120.0.0.0 Safari/537.36" etag="uB-HE-FEhRn9OMaqUp7B" version="22.1.18" type="github" pages="2">
  <diagram name="AS-IS" id="IAxwFGAK89wD91HLpio0">
    <mxGraphModel dx="1947" dy="468" grid="1" gridSize="10" guides="1" tooltips="1" connect="1" arrows="1" fold="1" page="1" pageScale="1" pageWidth="827" pageHeight="1169" math="0" shadow="0">
      <root>
        <mxCell id="0" />
        <mxCell id="1" parent="0" />
        <mxCell id="ogzxAHX3NMMypGVRjbcI-50" value="" style="rounded=1;whiteSpace=wrap;html=1;" vertex="1" parent="1">
          <mxGeometry x="-180" y="61" width="1000" height="969" as="geometry" />
        </mxCell>
        <mxCell id="ogzxAHX3NMMypGVRjbcI-55" value="" style="edgeStyle=orthogonalEdgeStyle;rounded=0;orthogonalLoop=1;jettySize=auto;html=1;" edge="1" parent="1" source="zeqQgfc1c0nD3fnRwPdC-15" target="ogzxAHX3NMMypGVRjbcI-54">
          <mxGeometry relative="1" as="geometry" />
        </mxCell>
        <mxCell id="zeqQgfc1c0nD3fnRwPdC-15" value="Faturamento" style="rounded=1;whiteSpace=wrap;html=1;" vertex="1" parent="1">
          <mxGeometry x="160" y="140" width="120" height="60" as="geometry" />
        </mxCell>
        <mxCell id="zeqQgfc1c0nD3fnRwPdC-16" value="Redes" style="rounded=1;whiteSpace=wrap;html=1;" vertex="1" parent="1">
          <mxGeometry x="-441.5" y="310" width="120" height="60" as="geometry" />
        </mxCell>
        <mxCell id="ogzxAHX3NMMypGVRjbcI-69" value="" style="edgeStyle=orthogonalEdgeStyle;rounded=0;orthogonalLoop=1;jettySize=auto;html=1;" edge="1" parent="1" source="zeqQgfc1c0nD3fnRwPdC-19">
          <mxGeometry relative="1" as="geometry">
            <mxPoint x="320" y="446" as="targetPoint" />
          </mxGeometry>
        </mxCell>
        <mxCell id="zeqQgfc1c0nD3fnRwPdC-19" value="Cobrança" style="whiteSpace=wrap;html=1;rounded=1;" vertex="1" parent="1">
          <mxGeometry x="260" y="332" width="120" height="60" as="geometry" />
        </mxCell>
        <mxCell id="jHGjSASzVKA6D7v_m3kc-1" value="Sinal - Rede" style="rounded=1;whiteSpace=wrap;html=1;" vertex="1" parent="1">
          <mxGeometry x="-441" y="420" width="120" height="60" as="geometry" />
        </mxCell>
        <mxCell id="ogzxAHX3NMMypGVRjbcI-3" style="edgeStyle=orthogonalEdgeStyle;rounded=0;orthogonalLoop=1;jettySize=auto;html=1;" edge="1" parent="1" source="ogzxAHX3NMMypGVRjbcI-1" target="ogzxAHX3NMMypGVRjbcI-2">
          <mxGeometry relative="1" as="geometry" />
        </mxCell>
        <mxCell id="ogzxAHX3NMMypGVRjbcI-1" value="" style="image;aspect=fixed;html=1;points=[];align=center;fontSize=12;image=img/lib/azure2/identity/Users.svg;" vertex="1" parent="1">
          <mxGeometry x="-590" y="150" width="64" height="70" as="geometry" />
        </mxCell>
        <mxCell id="ogzxAHX3NMMypGVRjbcI-5" style="edgeStyle=orthogonalEdgeStyle;rounded=0;orthogonalLoop=1;jettySize=auto;html=1;" edge="1" parent="1" source="ogzxAHX3NMMypGVRjbcI-2" target="ogzxAHX3NMMypGVRjbcI-4">
          <mxGeometry relative="1" as="geometry" />
        </mxCell>
        <mxCell id="ogzxAHX3NMMypGVRjbcI-6" style="edgeStyle=orthogonalEdgeStyle;rounded=0;orthogonalLoop=1;jettySize=auto;html=1;entryX=0.5;entryY=0;entryDx=0;entryDy=0;" edge="1" parent="1" source="ogzxAHX3NMMypGVRjbcI-2" target="zeqQgfc1c0nD3fnRwPdC-16">
          <mxGeometry relative="1" as="geometry" />
        </mxCell>
        <mxCell id="ogzxAHX3NMMypGVRjbcI-2" value="" style="sketch=0;outlineConnect=0;fontColor=#232F3E;gradientColor=none;fillColor=#232F3D;strokeColor=none;dashed=0;verticalLabelPosition=bottom;verticalAlign=top;align=center;html=1;fontSize=12;fontStyle=0;aspect=fixed;pointerEvents=1;shape=mxgraph.aws4.source_code;" vertex="1" parent="1">
          <mxGeometry x="-410" y="146" width="57" height="78" as="geometry" />
        </mxCell>
        <mxCell id="ogzxAHX3NMMypGVRjbcI-4" value="" style="image;aspect=fixed;html=1;points=[];align=center;fontSize=12;image=img/lib/azure2/general/Cost_Alerts.svg;" vertex="1" parent="1">
          <mxGeometry x="-415" y="40" width="67" height="56.00000000000001" as="geometry" />
        </mxCell>
        <mxCell id="ogzxAHX3NMMypGVRjbcI-7" style="edgeStyle=orthogonalEdgeStyle;rounded=0;orthogonalLoop=1;jettySize=auto;html=1;entryX=0.5;entryY=0;entryDx=0;entryDy=0;" edge="1" parent="1" source="zeqQgfc1c0nD3fnRwPdC-16" target="jHGjSASzVKA6D7v_m3kc-1">
          <mxGeometry relative="1" as="geometry" />
        </mxCell>
        <mxCell id="ogzxAHX3NMMypGVRjbcI-8" value="Queda Receita" style="text;strokeColor=none;align=center;fillColor=none;html=1;verticalAlign=middle;whiteSpace=wrap;rounded=0;" vertex="1" parent="1">
          <mxGeometry x="-360" y="110" width="60" height="30" as="geometry" />
        </mxCell>
        <mxCell id="ogzxAHX3NMMypGVRjbcI-9" value="Possível Motivo" style="text;strokeColor=none;align=center;fillColor=none;html=1;verticalAlign=middle;whiteSpace=wrap;rounded=0;" vertex="1" parent="1">
          <mxGeometry x="-348" y="380" width="60" height="30" as="geometry" />
        </mxCell>
        <mxCell id="ogzxAHX3NMMypGVRjbcI-17" value="on-premisses" style="text;strokeColor=none;align=center;fillColor=none;html=1;verticalAlign=middle;whiteSpace=wrap;rounded=0;" vertex="1" parent="1">
          <mxGeometry x="80" y="56" width="100" height="30" as="geometry" />
        </mxCell>
        <mxCell id="ogzxAHX3NMMypGVRjbcI-57" style="edgeStyle=orthogonalEdgeStyle;rounded=0;orthogonalLoop=1;jettySize=auto;html=1;" edge="1" parent="1" source="zeqQgfc1c0nD3fnRwPdC-17" target="zeqQgfc1c0nD3fnRwPdC-15">
          <mxGeometry relative="1" as="geometry" />
        </mxCell>
        <mxCell id="zeqQgfc1c0nD3fnRwPdC-17" value="Cadastro" style="rounded=1;whiteSpace=wrap;html=1;" vertex="1" parent="1">
          <mxGeometry x="-40" y="140" width="120" height="60" as="geometry" />
        </mxCell>
        <mxCell id="ogzxAHX3NMMypGVRjbcI-52" value="" style="group" vertex="1" connectable="0" parent="1">
          <mxGeometry x="77.5" y="408" width="65" height="110" as="geometry" />
        </mxCell>
        <mxCell id="ogzxAHX3NMMypGVRjbcI-14" value="" style="shape=cylinder3;whiteSpace=wrap;html=1;boundedLbl=1;backgroundOutline=1;size=15;" vertex="1" parent="ogzxAHX3NMMypGVRjbcI-52">
          <mxGeometry x="4.5" width="60" height="80" as="geometry" />
        </mxCell>
        <mxCell id="ogzxAHX3NMMypGVRjbcI-48" value="" style="image;aspect=fixed;perimeter=ellipsePerimeter;html=1;align=center;shadow=0;dashed=0;spacingTop=3;image=img/lib/active_directory/documents.svg;" vertex="1" parent="ogzxAHX3NMMypGVRjbcI-52">
          <mxGeometry x="13.5" y="30" width="33" height="50" as="geometry" />
        </mxCell>
        <mxCell id="ogzxAHX3NMMypGVRjbcI-49" value="DB" style="text;strokeColor=none;align=center;fillColor=none;html=1;verticalAlign=middle;whiteSpace=wrap;rounded=0;" vertex="1" parent="ogzxAHX3NMMypGVRjbcI-52">
          <mxGeometry x="5" y="80" width="60" height="30" as="geometry" />
        </mxCell>
        <mxCell id="ogzxAHX3NMMypGVRjbcI-51" value="tabelas" style="text;strokeColor=none;align=center;fillColor=none;html=1;verticalAlign=middle;whiteSpace=wrap;rounded=0;" vertex="1" parent="ogzxAHX3NMMypGVRjbcI-52">
          <mxGeometry width="60" height="30" as="geometry" />
        </mxCell>
        <mxCell id="ogzxAHX3NMMypGVRjbcI-58" style="edgeStyle=orthogonalEdgeStyle;rounded=0;orthogonalLoop=1;jettySize=auto;html=1;entryX=0.75;entryY=0;entryDx=0;entryDy=0;" edge="1" parent="1" source="ogzxAHX3NMMypGVRjbcI-54" target="ogzxAHX3NMMypGVRjbcI-51">
          <mxGeometry relative="1" as="geometry" />
        </mxCell>
        <mxCell id="ogzxAHX3NMMypGVRjbcI-67" style="edgeStyle=orthogonalEdgeStyle;rounded=0;orthogonalLoop=1;jettySize=auto;html=1;" edge="1" parent="1" source="ogzxAHX3NMMypGVRjbcI-54" target="zeqQgfc1c0nD3fnRwPdC-19">
          <mxGeometry relative="1" as="geometry">
            <Array as="points">
              <mxPoint x="320" y="270" />
            </Array>
          </mxGeometry>
        </mxCell>
        <mxCell id="ogzxAHX3NMMypGVRjbcI-54" value="fatura ok" style="rhombus;whiteSpace=wrap;html=1;rounded=1;" vertex="1" parent="1">
          <mxGeometry x="180" y="230" width="80" height="80" as="geometry" />
        </mxCell>
        <mxCell id="ogzxAHX3NMMypGVRjbcI-60" value="sim" style="text;strokeColor=none;align=center;fillColor=none;html=1;verticalAlign=middle;whiteSpace=wrap;rounded=0;" vertex="1" parent="1">
          <mxGeometry x="220" y="480" width="60" height="30" as="geometry" />
        </mxCell>
        <mxCell id="ogzxAHX3NMMypGVRjbcI-61" value="não" style="text;strokeColor=none;align=center;fillColor=none;html=1;verticalAlign=middle;whiteSpace=wrap;rounded=0;" vertex="1" parent="1">
          <mxGeometry x="250" y="270" width="60" height="30" as="geometry" />
        </mxCell>
        <mxCell id="ogzxAHX3NMMypGVRjbcI-66" style="edgeStyle=orthogonalEdgeStyle;rounded=0;orthogonalLoop=1;jettySize=auto;html=1;entryX=0;entryY=1;entryDx=0;entryDy=-15;entryPerimeter=0;" edge="1" parent="1" source="zeqQgfc1c0nD3fnRwPdC-17" target="ogzxAHX3NMMypGVRjbcI-14">
          <mxGeometry relative="1" as="geometry">
            <Array as="points">
              <mxPoint x="10" y="473" />
            </Array>
          </mxGeometry>
        </mxCell>
        <mxCell id="ogzxAHX3NMMypGVRjbcI-70" style="edgeStyle=orthogonalEdgeStyle;rounded=0;orthogonalLoop=1;jettySize=auto;html=1;exitX=0;exitY=0.5;exitDx=0;exitDy=0;" edge="1" parent="1" source="zeqQgfc1c0nD3fnRwPdC-19" target="ogzxAHX3NMMypGVRjbcI-14">
          <mxGeometry relative="1" as="geometry">
            <Array as="points">
              <mxPoint x="210" y="362" />
              <mxPoint x="210" y="448" />
            </Array>
          </mxGeometry>
        </mxCell>
        <mxCell id="ogzxAHX3NMMypGVRjbcI-89" style="edgeStyle=orthogonalEdgeStyle;rounded=0;orthogonalLoop=1;jettySize=auto;html=1;" edge="1" parent="1" source="ogzxAHX3NMMypGVRjbcI-78" target="ogzxAHX3NMMypGVRjbcI-82">
          <mxGeometry relative="1" as="geometry">
            <Array as="points">
              <mxPoint x="220" y="483" />
              <mxPoint x="220" y="643" />
            </Array>
          </mxGeometry>
        </mxCell>
        <mxCell id="ogzxAHX3NMMypGVRjbcI-93" style="edgeStyle=orthogonalEdgeStyle;rounded=0;orthogonalLoop=1;jettySize=auto;html=1;" edge="1" parent="1" source="ogzxAHX3NMMypGVRjbcI-78" target="ogzxAHX3NMMypGVRjbcI-82">
          <mxGeometry relative="1" as="geometry">
            <Array as="points">
              <mxPoint x="420" y="483" />
              <mxPoint x="420" y="643" />
            </Array>
          </mxGeometry>
        </mxCell>
        <mxCell id="ogzxAHX3NMMypGVRjbcI-78" value="acordo pago" style="rhombus;whiteSpace=wrap;html=1;rounded=1;" vertex="1" parent="1">
          <mxGeometry x="280" y="443" width="80" height="80" as="geometry" />
        </mxCell>
        <mxCell id="ogzxAHX3NMMypGVRjbcI-82" value="Redes" style="whiteSpace=wrap;html=1;rounded=1;" vertex="1" parent="1">
          <mxGeometry x="260" y="614" width="120" height="60" as="geometry" />
        </mxCell>
        <mxCell id="ogzxAHX3NMMypGVRjbcI-85" value="desbloqueia" style="text;strokeColor=none;align=center;fillColor=none;html=1;verticalAlign=middle;whiteSpace=wrap;rounded=0;" vertex="1" parent="1">
          <mxGeometry x="190" y="643" width="60" height="30" as="geometry" />
        </mxCell>
        <mxCell id="ogzxAHX3NMMypGVRjbcI-84" value="bloqueia" style="text;strokeColor=none;align=center;fillColor=none;html=1;verticalAlign=middle;whiteSpace=wrap;rounded=0;" vertex="1" parent="1">
          <mxGeometry x="380" y="653" width="60" height="20" as="geometry" />
        </mxCell>
        <mxCell id="ogzxAHX3NMMypGVRjbcI-95" value="sim" style="text;strokeColor=none;align=center;fillColor=none;html=1;verticalAlign=middle;whiteSpace=wrap;rounded=0;" vertex="1" parent="1">
          <mxGeometry x="130" y="270" width="60" height="30" as="geometry" />
        </mxCell>
        <mxCell id="ogzxAHX3NMMypGVRjbcI-96" value="não" style="text;strokeColor=none;align=center;fillColor=none;html=1;verticalAlign=middle;whiteSpace=wrap;rounded=0;" vertex="1" parent="1">
          <mxGeometry x="354" y="480" width="60" height="30" as="geometry" />
        </mxCell>
        <mxCell id="ogzxAHX3NMMypGVRjbcI-99" value="Id Cliente" style="text;strokeColor=none;align=center;fillColor=none;html=1;verticalAlign=middle;whiteSpace=wrap;rounded=0;" vertex="1" parent="1">
          <mxGeometry x="290" y="585" width="60" height="30" as="geometry" />
        </mxCell>
        <mxCell id="ogzxAHX3NMMypGVRjbcI-100" value="Id Cliente" style="text;strokeColor=none;align=center;fillColor=none;html=1;verticalAlign=middle;whiteSpace=wrap;rounded=0;" vertex="1" parent="1">
          <mxGeometry x="92.5" y="140" width="60" height="30" as="geometry" />
        </mxCell>
        <mxCell id="ogzxAHX3NMMypGVRjbcI-101" value="Id Cliente" style="text;strokeColor=none;align=center;fillColor=none;html=1;verticalAlign=middle;whiteSpace=wrap;rounded=0;" vertex="1" parent="1">
          <mxGeometry x="340" y="310" width="60" height="30" as="geometry" />
        </mxCell>
        <mxCell id="ogzxAHX3NMMypGVRjbcI-102" value="Id Cliente" style="text;strokeColor=none;align=center;fillColor=none;html=1;verticalAlign=middle;whiteSpace=wrap;rounded=0;" vertex="1" parent="1">
          <mxGeometry x="17.5" y="430" width="60" height="30" as="geometry" />
        </mxCell>
        <mxCell id="ogzxAHX3NMMypGVRjbcI-103" value="Web Service" style="image;aspect=fixed;perimeter=ellipsePerimeter;html=1;align=center;shadow=0;dashed=0;spacingTop=3;image=img/lib/active_directory/web_server.svg;" vertex="1" parent="1">
          <mxGeometry x="110" y="800" width="40" height="50" as="geometry" />
        </mxCell>
        <mxCell id="ogzxAHX3NMMypGVRjbcI-105" style="edgeStyle=orthogonalEdgeStyle;rounded=0;orthogonalLoop=1;jettySize=auto;html=1;entryX=0.417;entryY=0.983;entryDx=0;entryDy=0;entryPerimeter=0;" edge="1" parent="1" target="ogzxAHX3NMMypGVRjbcI-82">
          <mxGeometry relative="1" as="geometry">
            <mxPoint x="245" y="778" as="sourcePoint" />
          </mxGeometry>
        </mxCell>
        <mxCell id="ogzxAHX3NMMypGVRjbcI-107" style="edgeStyle=orthogonalEdgeStyle;rounded=0;orthogonalLoop=1;jettySize=auto;html=1;entryX=0.5;entryY=1;entryDx=0;entryDy=0;entryPerimeter=0;" edge="1" parent="1" source="ogzxAHX3NMMypGVRjbcI-103">
          <mxGeometry relative="1" as="geometry">
            <mxPoint x="220" y="796" as="targetPoint" />
          </mxGeometry>
        </mxCell>
        <mxCell id="ogzxAHX3NMMypGVRjbcI-108" value="Monitoramento Rede or cliente" style="text;strokeColor=none;align=center;fillColor=none;html=1;verticalAlign=middle;whiteSpace=wrap;rounded=0;" vertex="1" parent="1">
          <mxGeometry x="330" y="740" width="60" height="30" as="geometry" />
        </mxCell>
        <mxCell id="ogzxAHX3NMMypGVRjbcI-109" value="" style="html=1;strokeWidth=1;shadow=0;dashed=0;shape=mxgraph.ios7.misc.vpn;fillColor=#007AFF;strokeColor=none;buttonText=;strokeColor2=#222222;fontColor=#222222;fontSize=8;verticalLabelPosition=bottom;verticalAlign=top;align=center;sketch=0;" vertex="1" parent="1">
          <mxGeometry x="197.5" y="754" width="45" height="40" as="geometry" />
        </mxCell>
      </root>
    </mxGraphModel>
  </diagram>
  <diagram name="TO-BE" id="mM_RNKb-AiyCdoc5WcDT">
    <mxGraphModel dx="1120" dy="468" grid="1" gridSize="10" guides="1" tooltips="1" connect="1" arrows="1" fold="1" page="1" pageScale="1" pageWidth="827" pageHeight="1169" math="0" shadow="0">
      <root>
        <mxCell id="8SSY43KBljjAVpr2TPhG-0" />
        <mxCell id="8SSY43KBljjAVpr2TPhG-1" parent="8SSY43KBljjAVpr2TPhG-0" />
        <mxCell id="8SSY43KBljjAVpr2TPhG-2" value="" style="edgeStyle=orthogonalEdgeStyle;rounded=0;orthogonalLoop=1;jettySize=auto;html=1;" edge="1" parent="8SSY43KBljjAVpr2TPhG-1" source="8SSY43KBljjAVpr2TPhG-5" target="8SSY43KBljjAVpr2TPhG-9">
          <mxGeometry relative="1" as="geometry">
            <Array as="points">
              <mxPoint x="90" y="40" />
            </Array>
          </mxGeometry>
        </mxCell>
        <mxCell id="8SSY43KBljjAVpr2TPhG-3" value="" style="edgeStyle=orthogonalEdgeStyle;rounded=0;orthogonalLoop=1;jettySize=auto;html=1;" edge="1" parent="8SSY43KBljjAVpr2TPhG-1" source="8SSY43KBljjAVpr2TPhG-5" target="8SSY43KBljjAVpr2TPhG-10">
          <mxGeometry relative="1" as="geometry">
            <Array as="points">
              <mxPoint x="180" y="180" />
              <mxPoint x="180" y="180" />
            </Array>
          </mxGeometry>
        </mxCell>
        <mxCell id="8SSY43KBljjAVpr2TPhG-5" value="Faturamento" style="rounded=1;whiteSpace=wrap;html=1;" vertex="1" parent="8SSY43KBljjAVpr2TPhG-1">
          <mxGeometry x="30" y="80" width="120" height="60" as="geometry" />
        </mxCell>
        <mxCell id="8SSY43KBljjAVpr2TPhG-6" value="" style="edgeStyle=orthogonalEdgeStyle;rounded=0;orthogonalLoop=1;jettySize=auto;html=1;" edge="1" parent="8SSY43KBljjAVpr2TPhG-1" source="8SSY43KBljjAVpr2TPhG-8" target="8SSY43KBljjAVpr2TPhG-12">
          <mxGeometry relative="1" as="geometry" />
        </mxCell>
        <mxCell id="8SSY43KBljjAVpr2TPhG-7" value="" style="edgeStyle=orthogonalEdgeStyle;rounded=0;orthogonalLoop=1;jettySize=auto;html=1;" edge="1" parent="8SSY43KBljjAVpr2TPhG-1" source="8SSY43KBljjAVpr2TPhG-8" target="8SSY43KBljjAVpr2TPhG-13">
          <mxGeometry relative="1" as="geometry" />
        </mxCell>
        <mxCell id="8SSY43KBljjAVpr2TPhG-8" value="Redes" style="rounded=1;whiteSpace=wrap;html=1;" vertex="1" parent="8SSY43KBljjAVpr2TPhG-1">
          <mxGeometry x="480" y="200" width="120" height="60" as="geometry" />
        </mxCell>
        <mxCell id="Q-ns0YubxybJRYl6pYlt-2" style="edgeStyle=orthogonalEdgeStyle;rounded=0;orthogonalLoop=1;jettySize=auto;html=1;entryX=0;entryY=0.5;entryDx=0;entryDy=0;" edge="1" parent="8SSY43KBljjAVpr2TPhG-1" source="8SSY43KBljjAVpr2TPhG-9" target="8SSY43KBljjAVpr2TPhG-11">
          <mxGeometry relative="1" as="geometry" />
        </mxCell>
        <mxCell id="8SSY43KBljjAVpr2TPhG-9" value="Cadastro" style="rounded=1;whiteSpace=wrap;html=1;" vertex="1" parent="8SSY43KBljjAVpr2TPhG-1">
          <mxGeometry x="201" y="20" width="120" height="60" as="geometry" />
        </mxCell>
        <mxCell id="8SSY43KBljjAVpr2TPhG-10" value="Cobrança" style="whiteSpace=wrap;html=1;rounded=1;" vertex="1" parent="8SSY43KBljjAVpr2TPhG-1">
          <mxGeometry x="201" y="150" width="120" height="60" as="geometry" />
        </mxCell>
        <mxCell id="Q-ns0YubxybJRYl6pYlt-3" style="edgeStyle=orthogonalEdgeStyle;rounded=0;orthogonalLoop=1;jettySize=auto;html=1;entryX=0.5;entryY=0;entryDx=0;entryDy=0;" edge="1" parent="8SSY43KBljjAVpr2TPhG-1" source="8SSY43KBljjAVpr2TPhG-11" target="8SSY43KBljjAVpr2TPhG-8">
          <mxGeometry relative="1" as="geometry" />
        </mxCell>
        <mxCell id="8SSY43KBljjAVpr2TPhG-11" value="Notificação" style="whiteSpace=wrap;html=1;rounded=1;" vertex="1" parent="8SSY43KBljjAVpr2TPhG-1">
          <mxGeometry x="460" y="20" width="120" height="60" as="geometry" />
        </mxCell>
        <mxCell id="8SSY43KBljjAVpr2TPhG-12" value="Bloqueio" style="whiteSpace=wrap;html=1;rounded=1;" vertex="1" parent="8SSY43KBljjAVpr2TPhG-1">
          <mxGeometry x="370" y="300" width="120" height="60" as="geometry" />
        </mxCell>
        <mxCell id="8SSY43KBljjAVpr2TPhG-13" value="Desbloqueio" style="whiteSpace=wrap;html=1;rounded=1;" vertex="1" parent="8SSY43KBljjAVpr2TPhG-1">
          <mxGeometry x="590" y="300" width="120" height="60" as="geometry" />
        </mxCell>
      </root>
    </mxGraphModel>
  </diagram>
</mxfile>
